HIERARCHY
ROOT Hips
{
 OFFSET 0.000000 0.000000 0.000000
 CHANNELS 6 Xposition Yposition Zposition Yrotation Xrotation Zrotation
 JOINT Chest
 {
  OFFSET 0.000000 9.585900 0.002600
  CHANNELS 3 Yrotation Xrotation Zrotation
  JOINT Chest2
  {
   OFFSET 0.000000 9.601200 -0.005300
   CHANNELS 3 Yrotation Xrotation Zrotation
   JOINT Chest3
   {
    OFFSET 0.000000 9.561800 0.000000
    CHANNELS 3 Yrotation Xrotation Zrotation
    JOINT Chest4
    {
     OFFSET 0.000000 9.552100 0.000000
     CHANNELS 3 Yrotation Xrotation Zrotation
     JOINT Neck
     {
      OFFSET 0.000000 14.453000 0.000000
      CHANNELS 3 Yrotation Xrotation Zrotation
      JOINT Head
      {
       OFFSET 0.000000 8.936500 -0.011300
       CHANNELS 3 Yrotation Xrotation Zrotation
       End Site
       {
        OFFSET 0.000000 17.073600 -0.006000
       }
      }
     }
     JOINT RightCollar
     {
      OFFSET -2.921100 9.558500 0.000000
      CHANNELS 3 Yrotation Xrotation Zrotation
      JOINT RightShoulder
      {
       OFFSET -13.519700 0.000000 0.000000
       CHANNELS 3 Yrotation Xrotation Zrotation
       JOINT RightElbow
       {
        OFFSET 0.000000 -29.696600 0.000000
        CHANNELS 3 Yrotation Xrotation Zrotation
        JOINT RightWrist
        {
         OFFSET 0.000000 -24.004700 0.000000
         CHANNELS 3 Yrotation Xrotation Zrotation
         End Site
         {
          OFFSET 0.000000 -17.728500 0.000000
         }
        }
       }
      }
     }
     JOINT LeftCollar
     {
      OFFSET 2.921100 9.558500 0.000000
      CHANNELS 3 Yrotation Xrotation Zrotation
      JOINT LeftShoulder
      {
       OFFSET 13.519700 0.000000 0.000000
       CHANNELS 3 Yrotation Xrotation Zrotation
       JOINT LeftElbow
       {
        OFFSET 0.000000 -29.696600 0.000000
        CHANNELS 3 Yrotation Xrotation Zrotation
        JOINT LeftWrist
        {
         OFFSET 0.000000 -24.004700 0.000000
         CHANNELS 3 Yrotation Xrotation Zrotation
         End Site
         {
          OFFSET 0.000000 -17.728500 0.000000
         }
        }
       }
      }
     }
    }
   }
  }
 }
 JOINT RightHip
 {
  OFFSET -7.771700 -0.012900 -0.001300
  CHANNELS 3 Yrotation Xrotation Zrotation
  JOINT RightKnee
  {
   OFFSET 0.000000 -40.869800 0.001200
   CHANNELS 3 Yrotation Xrotation Zrotation
   JOINT RightAnkle
   {
    OFFSET 0.000000 -39.717900 0.002100
    CHANNELS 3 Yrotation Xrotation Zrotation
    JOINT RightToe
    {
     OFFSET 0.000000 -4.965400 11.033500
     CHANNELS 3 Yrotation Xrotation Zrotation
     End Site
     {
      OFFSET 0.000000 -1.423100 5.872300
     }
    }
   }
  }
 }
 JOINT LeftHip
 {
  OFFSET 7.771700 -0.012900 -0.001300
  CHANNELS 3 Yrotation Xrotation Zrotation
  JOINT LeftKnee
  {
   OFFSET 0.000000 -40.869800 0.001200
   CHANNELS 3 Yrotation Xrotation Zrotation
   JOINT LeftAnkle
   {
    OFFSET 0.000000 -39.717900 0.002100
    CHANNELS 3 Yrotation Xrotation Zrotation
    JOINT LeftToe
    {
     OFFSET 0.000000 -4.965400 11.033500
     CHANNELS 3 Yrotation Xrotation Zrotation
     End Site
     {
      OFFSET 0.000000 -1.423100 5.872300
     }
    }
   }
  }
 }
}
MOTION
Frames: 14
Frame Time: 0.008333
0.000000 85.388000 0.000000 0.000000 -5.767877 0.000000 0.000000 11.653817 0.000000 0.000000 -5.885947 0.000000 0.000000 -0.000000 0.000000 0.000000 -0.000000 0.000000 0.000000 12.528835 0.000000 0.000000 0.711642 0.000000 0.000000 -0.000000 0.000000 0.000000 0.000000 -90.000000 0.000000 -2.309062 0.000000 0.000000 2.309062 0.000000 0.000000 -0.000000 0.000000 0.000000 -0.000000 90.000000 0.000000 -2.309062 0.000000 0.000000 2.309062 0.000000 0.000000 8.520406 0.000000 0.000000 1.905762 0.000000 -0.000000 -4.658285 0.000000 0.000000 -0.000000 0.000000 0.000000 8.520406 0.000000 0.000000 1.905762 0.000000 -0.000000 -4.658285 0.000000 0.000000 -0.000000 0.000000
-24.791572 48.841288 28.422007 172.737706 -28.508271 -0.474354 0.330119 12.931567 1.793156 0.041653 7.380498 1.398567 0.087516 9.270839 1.740343 0.038169 7.370895 1.400860 -1.743038 18.216843 -2.628057 -2.395505 -1.997821 -4.263513 4.974902 4.135559 -4.371423 3.452271 -20.812017 -8.946301 35.985696 -56.841774 -24.334440 11.588160 8.345378 -36.171793 -4.019557 1.370160 -3.499196 5.150914 -24.464024 -1.205067 -62.027391 -41.282480 38.425885 -8.908121 13.902668 34.194283 25.906146 -52.231007 -30.088031 -112.792356 71.268383 -102.871663 1.809071 -5.787548 3.943761 0.212834 -0.827355 0.107879 -6.161511 -54.729365 15.479717 115.630361 80.609471 112.970764 -4.564604 -12.172348 -2.702259 0.228106 0.673014 0.090290
-24.792572 48.841660 28.416671 172.731991 -28.531042 -0.471600 0.329705 12.921235 1.801147 0.040631 7.398090 1.392728 0.086591 9.261361 1.743022 0.032485 7.373511 1.398973 -1.731072 18.233353 -2.630242 -2.307694 -1.950383 -4.262264 4.982586 4.150287 -4.370921 3.466821 -20.820393 -8.960356 35.960270 -56.832713 -24.310620 11.586838 8.345639 -36.147226 -4.015646 1.382644 -3.508313 5.136860 -24.502931 -1.154962 -61.934177 -41.318963 38.326649 -8.902849 13.895556 34.201295 25.910219 -52.207501 -30.083005 -112.818238 71.262711 -102.893886 1.818671 -5.788707 3.947869 0.209487 -0.830937 0.103422 -6.166104 -54.705767 15.478269 115.693352 80.600775 113.034021 -4.562501 -12.179270 -2.706264 0.229845 0.669892 0.089272
-24.795175 48.841027 28.412084 172.736830 -28.546247 -0.466133 0.319580 12.918565 1.796351 0.041834 7.410837 1.389624 0.076814 9.240285 1.746858 0.038498 7.392582 1.393846 -1.715977 18.223615 -2.618565 -2.283155 -1.917158 -4.268861 4.988914 4.128888 -4.348361 3.522901 -20.847292 -9.011378 35.846813 -56.801087 -24.233542 11.589147 8.349086 -36.113651 -4.030053 1.351740 -3.520934 5.147855 -24.479074 -1.128516 -61.891940 -41.346297 38.286847 -8.897601 13.888500 34.208191 25.919452 -52.188687 -30.096851 -112.856067 71.257431 -102.928009 1.826595 -5.793247 3.949314 0.208737 -0.833808 0.102346 -6.176826 -54.687410 15.474941 115.716233 80.593861 113.045070 -4.566925 -12.184599 -2.703008 0.231359 0.671895 0.089724
-24.797932 48.839482 28.408446 172.743854 -28.554789 -0.462285 0.306776 12.907628 1.790725 0.036751 7.408068 1.389757 0.070487 9.234904 1.744737 0.033497 7.388297 1.392405 -1.689659 18.236786 -2.609717 -2.241203 -1.869833 -4.273815 5.006086 4.157787 -4.345811 3.536505 -20.862183 -9.024226 35.803614 -56.808806 -24.200510 11.585475 8.360523 -36.097520 -4.021818 1.366980 -3.534004 5.151827 -24.474614 -1.108529 -61.838079 -41.400009 38.234294 -8.885378 13.869220 34.223469 25.923628 -52.177267 -30.108527 -112.882516 71.255357 -102.953105 1.826564 -5.799924 3.946473 0.211275 -0.832221 0.104460 -6.197820 -54.675643 15.476831 115.732220 80.586476 113.045425 -4.564152 -12.187994 -2.699196 0.228012 0.675374 0.089313
-24.800056 48.837715 28.404795 172.748573 -28.564725 -0.461583 0.296263 12.901326 1.787112 0.017536 7.366528 1.393147 0.054510 9.217078 1.745067 0.051427 7.427590 1.387451 -1.672583 18.253250 -2.607478 -2.191992 -1.817724 -4.279221 5.022723 4.179199 -4.334648 3.541891 -20.871878 -9.046989 35.753830 -56.818933 -24.154000 11.592083 8.375887 -36.076285 -4.015636 1.391142 -3.552824 5.150371 -24.483461 -1.036398 -61.720602 -41.547250 38.105444 -8.927791 13.865864 34.239506 25.924475 -52.166666 -30.113257 -112.908116 71.253393 -102.976638 1.827901 -5.804691 3.940933 0.210937 -0.831917 0.108522 -6.213105 -54.664901 15.482020 115.795668 80.591694 113.096023 -4.551087 -12.193212 -2.693559 0.224252 0.677100 0.087363
-24.800530 48.835905 28.401175 172.747631 -28.577350 -0.468492 0.285164 12.885498 1.792340 0.008947 7.355816 1.393248 0.043699 9.203684 1.744993 0.012281 7.363093 1.392830 -1.614555 18.344805 -2.617528 -2.179184 -1.781682 -4.294017 5.076833 4.266124 -4.302024 3.555810 -20.875569 -9.093170 35.706798 -56.815971 -24.097107 11.608438 8.387976 -36.055630 -3.961478 1.485883 -3.591288 5.165552 -24.469413 -0.990656 -61.679237 -41.613797 38.045057 -8.871737 13.801900 34.233462 25.928443 -52.159179 -30.106735 -112.949826 71.248884 -103.010744 1.821249 -5.802113 3.937044 0.216007 -0.838607 0.111235 -6.238145 -54.650324 15.505584 115.852895 80.589691 113.149138 -4.558587 -12.203413 -2.700545 0.234648 0.680967 0.092109
-24.802670 48.833569 28.398209 172.750475 -28.585971 -0.468560 0.261283 12.855537 1.787611 0.010532 7.362119 1.392757 0.022243 9.176643 1.746758 0.001757 7.350681 1.393213 -1.578505 18.388893 -2.618271 -2.069307 -1.667902 -4.299337 5.107436 4.321246 -4.285557 3.556176 -20.894481 -9.117056 35.675652 -56.810147 -24.043170 11.621417 8.399095 -36.039183 -3.927362 1.525984 -3.622491 5.183950 -24.447001 -0.943686 -61.658331 -41.655836 37.999328 -8.815333 13.748073 34.220067 25.934074 -52.150266 -30.115440 -112.985168 71.253316 -103.041502 1.820530 -5.805869 3.934168 0.212813 -0.839262 0.113820 -6.253121 -54.639269 15.514876 115.876454 80.587306 113.164479 -4.568742 -12.212806 -2.703121 0.240038 0.687890 0.097857
-24.805004 48.831518 28.394836 172.752164 -28.599433 -0.467661 0.236826 12.836826 1.782276 0.025333 7.383635 1.391526 -0.018836 9.124427 1.752208 -0.010753 7.337303 1.393654 -1.536427 18.445642 -2.627239 -1.982308 -1.568478 -4.308555 5.144172 4.381409 -4.270607 3.562150 -20.921132 -9.140531 35.659043 -56.797011 -24.003424 11.627770 8.404644 -36.010083 -3.880957 1.573123 -3.655855 5.195378 -24.429129 -0.900203 -61.583716 -41.757228 37.907756 -8.861818 13.760262 34.225432 25.945000 -52.134301 -30.123961 -113.013304 71.257387 -103.064501 1.821007 -5.804393 3.934909 0.206390 -0.842238 0.116267 -6.260052 -54.622989 15.518503 115.900057 80.587738 113.180983 -4.575141 -12.223534 -2.701917 0.243874 0.695297 0.101019
-24.808447 48.828839 28.392725 172.748783 -28.605897 -0.460032 0.219312 12.818733 1.773434 -0.023112 7.325382 1.394010 -0.012755 9.141306 1.747298 0.009771 7.366719 1.385005 -1.513416 18.478934 -2.635299 -1.946178 -1.526218 -4.311545 5.159758 4.408361 -4.256419 3.568610 -20.960908 -9.152233 35.643735 -56.776276 -23.981062 11.622705 8.406323 -35.964906 -3.857112 1.576415 -3.676869 5.199725 -24.400268 -0.872991 -61.514692 -41.823743 37.835832 -8.828175 13.720370 34.228873 25.977600 -52.121325 -30.153310 -113.044913 71.261751 -103.088135 1.830777 -5.801630 3.940652 0.193356 -0.843982 0.111637 -6.250742 -54.616453 15.509390 115.927741 80.589912 113.204469 -4.574161 -12.232073 -2.699574 0.246938 0.700697 0.103554
-24.811356 48.826297 28.390777 172.747215 -28.614252 -0.457978 0.213979 12.818690 1.771296 -0.048066 7.296154 1.395667 -0.047736 9.105573 1.748981 -0.023306 7.330628 1.388845 -1.445948 18.563958 -2.649096 -1.844510 -1.393049 -4.333949 5.241309 4.520632 -4.272392 3.567859 -21.019766 -9.142687 35.623232 -56.742905 -23.960762 11.617499 8.410626 -35.934736 -3.772836 1.642960 -3.724244 5.190262 -24.381997 -0.820098 -61.412486 -41.889864 37.731604 -8.771238 13.677119 34.235405 25.983477 -52.112886 -30.155688 -113.051310 71.259330 -103.095801 1.832686 -5.804050 3.942900 0.195524 -0.840391 0.109389 -6.252451 -54.605350 15.510600 115.940642 80.592234 113.211313 -4.574772 -12.243426 -2.699242 0.256046 0.709691 0.107704
-24.814519 48.823984 28.388708 172.748095 -28.625631 -0.456795 0.181306 12.792255 1.766583 -0.079217 7.262701 1.395218 -0.059858 9.099004 1.745937 -0.060907 7.291123 1.392930 -1.390047 18.633089 -2.645977 -1.718893 -1.218489 -4.388323 5.315032 4.625636 -4.262130 3.602148 -21.072961 -9.160042 35.587022 -56.696081 -23.934449 11.612986 8.411213 -35.904123 -3.678134 1.709751 -3.772239 5.165251 -24.362757 -0.769297 -61.300622 -41.934833 37.629823 -8.710005 13.645186 34.239440 25.983957 -52.102278 -30.154098 -113.056859 71.254954 -103.102984 1.830690 -5.806412 3.940634 0.198169 -0.837177 0.111590 -6.249143 -54.592429 15.503920 115.946320 80.594025 113.214136 -4.570650 -12.254052 -2.697498 0.253747 0.717894 0.110212
-24.817894 48.822361 28.385614 172.744672 -28.645990 -0.452507 0.125637 12.737776 1.754962 -0.084774 7.262504 1.393689 -0.070760 9.092468 1.744473 -0.078823 7.273826 1.393941 -1.343303 18.704400 -2.651348 -1.618847 -1.063128 -4.432953 5.366989 4.714215 -4.244697 3.643894 -21.139977 -9.181500 35.538299 -56.641655 -23.900125 11.627956 8.424231 -35.867675 -3.603393 1.751132 -3.810858 5.151102 -24.317663 -0.745234 -61.185652 -41.991214 37.537751 -8.671642 13.615414 34.242279 25.981386 -52.083274 -30.145358 -113.059035 71.249953 -103.108802 1.831029 -5.809335 3.936310 0.194752 -0.833457 0.115534 -6.230588 -54.566556 15.489956 115.953264 80.599334 113.217125 -4.564698 -12.277115 -2.690079 0.249822 0.735176 0.109721
-24.820435 48.820248 28.383724 172.750690 -28.660772 -0.459188 0.094744 12.706988 1.752033 -0.102651 7.244270 1.395371 -0.093185 9.069789 1.746137 -0.096708 7.255632 1.395614 -1.288288 18.802291 -2.673542 -1.526204 -0.900308 -4.461812 5.411554 4.797903 -4.220701 3.694178 -21.207775 -9.209836 35.440823 -56.608216 -23.856420 11.650090 8.445563 -35.789904 -3.536217 1.791738 -3.847551 5.138591 -24.269224 -0.720970 -61.035717 -42.066787 37.425153 -8.654492 13.591300 34.236943 25.965326 -52.072029 -30.130898 -113.059624 71.243887 -103.112718 1.835446 -5.810979 3.934364 0.196386 -0.831159 0.115908 -6.234222 -54.550630 15.493782 115.994967 80.611707 113.254466 -4.556047 -12.288630 -2.683331 0.248617 0.744038 0.109905
